<mxfile host="app.diagrams.net" modified="2020-12-04T08:20:15.686Z" agent="5.0 (Windows NT 10.0; Win64; x64) AppleWebKit/537.36 (KHTML, like Gecko) Chrome/87.0.4280.88 Safari/537.36" etag="sozaupdfW7FRbnNATQI-" version="13.10.0" type="github">
  <diagram id="GHz9nNZ9IIZGSt0H2ciL" name="第 1 页">
    <mxGraphModel dx="1673" dy="946" grid="0" gridSize="10" guides="1" tooltips="1" connect="1" arrows="1" fold="1" page="1" pageScale="1" pageWidth="827" pageHeight="1169" background="#DAD2D8" math="0" shadow="0">
      <root>
        <mxCell id="0" />
        <mxCell id="1" parent="0" />
        <mxCell id="L6uiKgAgkNkLQAsuU1uR-5" style="edgeStyle=orthogonalEdgeStyle;rounded=0;orthogonalLoop=1;jettySize=auto;html=1;exitX=0.5;exitY=0;exitDx=0;exitDy=0;entryX=0;entryY=0.5;entryDx=0;entryDy=0;curved=1;labelBackgroundColor=#DAD2D8;strokeColor=#A8201A;fontColor=#143642;strokeWidth=3;" edge="1" parent="1" source="L6uiKgAgkNkLQAsuU1uR-4" target="L6uiKgAgkNkLQAsuU1uR-3">
          <mxGeometry relative="1" as="geometry" />
        </mxCell>
        <mxCell id="L6uiKgAgkNkLQAsuU1uR-6" value="CHECK IN" style="edgeLabel;html=1;align=center;verticalAlign=middle;resizable=0;points=[];fontStyle=1;fontSize=15;labelBackgroundColor=#DAD2D8;fontColor=#143642;" vertex="1" connectable="0" parent="L6uiKgAgkNkLQAsuU1uR-5">
          <mxGeometry x="-0.0365" y="-17" relative="1" as="geometry">
            <mxPoint as="offset" />
          </mxGeometry>
        </mxCell>
        <mxCell id="L6uiKgAgkNkLQAsuU1uR-4" value="" style="shape=ext;double=1;rounded=1;whiteSpace=wrap;html=1;glass=0;sketch=1;perimeterSpacing=0;opacity=50;strokeColor=#0F8B8D;fillColor=#FAE5C7;fontColor=#143642;" vertex="1" parent="1">
          <mxGeometry x="40" y="270" width="190" height="100" as="geometry" />
        </mxCell>
        <mxCell id="L6uiKgAgkNkLQAsuU1uR-1" value="" style="shape=mxgraph.cisco.people.androgenous_person;html=1;pointerEvents=1;dashed=0;fillColor=#FAE5C7;strokeColor=#0F8B8D;strokeWidth=2;verticalLabelPosition=bottom;verticalAlign=top;align=center;outlineConnect=0;fontColor=#143642;" vertex="1" parent="1">
          <mxGeometry x="60" y="290" width="60" height="60" as="geometry" />
        </mxCell>
        <mxCell id="L6uiKgAgkNkLQAsuU1uR-2" value="" style="shape=mxgraph.cisco.people.androgenous_person;html=1;pointerEvents=1;dashed=0;fillColor=#FAE5C7;strokeColor=#0F8B8D;strokeWidth=2;verticalLabelPosition=bottom;verticalAlign=top;align=center;outlineConnect=0;fontColor=#143642;" vertex="1" parent="1">
          <mxGeometry x="150" y="290" width="60" height="60" as="geometry" />
        </mxCell>
        <mxCell id="L6uiKgAgkNkLQAsuU1uR-20" style="edgeStyle=none;rounded=1;sketch=0;orthogonalLoop=1;jettySize=auto;html=1;exitX=1;exitY=0.5;exitDx=0;exitDy=0;strokeColor=#A8201A;fillColor=#FAE5C7;fontColor=#143642;entryX=0;entryY=0.5;entryDx=0;entryDy=0;strokeWidth=3;" edge="1" parent="1" source="L6uiKgAgkNkLQAsuU1uR-3" target="L6uiKgAgkNkLQAsuU1uR-7">
          <mxGeometry relative="1" as="geometry">
            <mxPoint x="465.8333333333335" y="180" as="targetPoint" />
          </mxGeometry>
        </mxCell>
        <mxCell id="L6uiKgAgkNkLQAsuU1uR-3" value="" style="aspect=fixed;perimeter=ellipsePerimeter;html=1;align=center;shadow=0;dashed=0;fontColor=#143642;fontSize=12;spacingTop=3;image;image=img/lib/ibm/data/device_registry.svg;labelBackgroundColor=#DAD2D8;fillColor=#FAE5C7;strokeColor=#0F8B8D;" vertex="1" parent="1">
          <mxGeometry x="300" y="140" width="80" height="80" as="geometry" />
        </mxCell>
        <mxCell id="L6uiKgAgkNkLQAsuU1uR-8" value="SOURCE&lt;br&gt;REPOSITORY" style="text;html=1;align=center;verticalAlign=middle;resizable=0;points=[];autosize=1;fontSize=15;fontStyle=1;fontColor=#143642;" vertex="1" parent="1">
          <mxGeometry x="285" y="90" width="110" height="40" as="geometry" />
        </mxCell>
        <mxCell id="L6uiKgAgkNkLQAsuU1uR-19" value="" style="group" vertex="1" connectable="0" parent="1">
          <mxGeometry x="465" y="105" width="280" height="150" as="geometry" />
        </mxCell>
        <mxCell id="L6uiKgAgkNkLQAsuU1uR-7" value="" style="rounded=1;whiteSpace=wrap;html=1;glass=0;sketch=1;fontSize=15;opacity=50;strokeColor=#0F8B8D;fillColor=#FAE5C7;fontColor=#143642;dashed=1;" vertex="1" parent="L6uiKgAgkNkLQAsuU1uR-19">
          <mxGeometry width="280" height="150" as="geometry" />
        </mxCell>
        <mxCell id="L6uiKgAgkNkLQAsuU1uR-9" value="" style="outlineConnect=0;dashed=0;verticalLabelPosition=bottom;verticalAlign=top;align=center;html=1;shape=mxgraph.aws3.ecr_registry;fillColor=#F58534;gradientColor=none;rounded=0;sketch=1;strokeColor=#0F8B8D;fontColor=#143642;" vertex="1" parent="L6uiKgAgkNkLQAsuU1uR-19">
          <mxGeometry x="41" y="56" width="57" height="82" as="geometry" />
        </mxCell>
        <mxCell id="L6uiKgAgkNkLQAsuU1uR-14" value="" style="rounded=1;sketch=0;orthogonalLoop=1;jettySize=auto;html=1;strokeColor=#A8201A;fillColor=#FAE5C7;fontColor=#143642;" edge="1" parent="L6uiKgAgkNkLQAsuU1uR-19" source="L6uiKgAgkNkLQAsuU1uR-10">
          <mxGeometry relative="1" as="geometry">
            <mxPoint x="188" y="68" as="targetPoint" />
          </mxGeometry>
        </mxCell>
        <mxCell id="L6uiKgAgkNkLQAsuU1uR-10" value="&lt;b&gt;&lt;font style=&quot;font-size: 16px&quot;&gt;BUILD&lt;/font&gt;&lt;/b&gt;" style="text;html=1;align=center;verticalAlign=middle;resizable=0;points=[];autosize=1;fontColor=#143642;" vertex="1" parent="L6uiKgAgkNkLQAsuU1uR-19">
          <mxGeometry x="158" y="15" width="59" height="19" as="geometry" />
        </mxCell>
        <mxCell id="L6uiKgAgkNkLQAsuU1uR-11" value="&lt;b&gt;&lt;font style=&quot;font-size: 16px&quot;&gt;TEST&lt;/font&gt;&lt;/b&gt;" style="text;html=1;align=center;verticalAlign=middle;resizable=0;points=[];autosize=1;fontColor=#143642;" vertex="1" parent="L6uiKgAgkNkLQAsuU1uR-19">
          <mxGeometry x="162" y="65.5" width="51" height="19" as="geometry" />
        </mxCell>
        <mxCell id="L6uiKgAgkNkLQAsuU1uR-12" value="&lt;b&gt;&lt;font style=&quot;font-size: 16px&quot;&gt;RESULT&lt;/font&gt;&lt;/b&gt;" style="text;html=1;align=center;verticalAlign=middle;resizable=0;points=[];autosize=1;fontColor=#143642;" vertex="1" parent="L6uiKgAgkNkLQAsuU1uR-19">
          <mxGeometry x="151" y="116" width="73" height="19" as="geometry" />
        </mxCell>
        <mxCell id="L6uiKgAgkNkLQAsuU1uR-16" value="" style="rounded=1;sketch=0;orthogonalLoop=1;jettySize=auto;html=1;strokeColor=#A8201A;fillColor=#FAE5C7;fontColor=#143642;entryX=0.489;entryY=0.009;entryDx=0;entryDy=0;entryPerimeter=0;" edge="1" parent="L6uiKgAgkNkLQAsuU1uR-19" source="L6uiKgAgkNkLQAsuU1uR-11" target="L6uiKgAgkNkLQAsuU1uR-12">
          <mxGeometry relative="1" as="geometry" />
        </mxCell>
        <mxCell id="L6uiKgAgkNkLQAsuU1uR-18" value="&lt;b&gt;&lt;font style=&quot;font-size: 16px&quot;&gt;CLSEVER&lt;/font&gt;&lt;/b&gt;" style="text;html=1;align=center;verticalAlign=middle;resizable=0;points=[];autosize=1;fontColor=#143642;" vertex="1" parent="L6uiKgAgkNkLQAsuU1uR-19">
          <mxGeometry x="26.5" y="23.5" width="86" height="19" as="geometry" />
        </mxCell>
        <mxCell id="L6uiKgAgkNkLQAsuU1uR-21" style="edgeStyle=orthogonalEdgeStyle;rounded=1;sketch=0;orthogonalLoop=1;jettySize=auto;html=1;exitX=0.5;exitY=1;exitDx=0;exitDy=0;entryX=1;entryY=0.5;entryDx=0;entryDy=0;strokeColor=#A8201A;fillColor=#FAE5C7;fontColor=#143642;curved=1;strokeWidth=3;" edge="1" parent="1" source="L6uiKgAgkNkLQAsuU1uR-7" target="L6uiKgAgkNkLQAsuU1uR-4">
          <mxGeometry relative="1" as="geometry">
            <Array as="points">
              <mxPoint x="605" y="320" />
            </Array>
          </mxGeometry>
        </mxCell>
        <mxCell id="L6uiKgAgkNkLQAsuU1uR-24" value="RESULT" style="edgeLabel;html=1;align=center;verticalAlign=middle;resizable=0;points=[];fontColor=#143642;labelBackgroundColor=none;fontStyle=1;fontSize=16;" vertex="1" connectable="0" parent="L6uiKgAgkNkLQAsuU1uR-21">
          <mxGeometry x="0.0795" y="-9" relative="1" as="geometry">
            <mxPoint x="-10.5" y="-6" as="offset" />
          </mxGeometry>
        </mxCell>
        <mxCell id="L6uiKgAgkNkLQAsuU1uR-28" style="edgeStyle=orthogonalEdgeStyle;curved=1;rounded=1;sketch=0;orthogonalLoop=1;jettySize=auto;html=1;exitX=0.5;exitY=1;exitDx=0;exitDy=0;entryX=0.5;entryY=0;entryDx=0;entryDy=0;strokeColor=#A8201A;fillColor=#FAE5C7;fontSize=16;fontColor=#143642;strokeWidth=3;" edge="1" parent="1" source="L6uiKgAgkNkLQAsuU1uR-25" target="L6uiKgAgkNkLQAsuU1uR-26">
          <mxGeometry relative="1" as="geometry" />
        </mxCell>
        <mxCell id="L6uiKgAgkNkLQAsuU1uR-33" style="rounded=1;sketch=0;orthogonalLoop=1;jettySize=auto;html=1;exitX=0;exitY=0.5;exitDx=0;exitDy=0;entryX=1;entryY=0.5;entryDx=0;entryDy=0;strokeColor=#A8201A;fillColor=#FAE5C7;fontSize=16;fontColor=#143642;edgeStyle=orthogonalEdgeStyle;elbow=vertical;curved=1;strokeWidth=3;" edge="1" parent="1" source="L6uiKgAgkNkLQAsuU1uR-25" target="L6uiKgAgkNkLQAsuU1uR-4">
          <mxGeometry relative="1" as="geometry">
            <Array as="points">
              <mxPoint x="538" y="377" />
              <mxPoint x="230" y="377" />
            </Array>
          </mxGeometry>
        </mxCell>
        <mxCell id="L6uiKgAgkNkLQAsuU1uR-36" value="&lt;span style=&quot;font-weight: 700;&quot;&gt;RESULT&lt;/span&gt;" style="edgeLabel;html=1;align=center;verticalAlign=middle;resizable=0;points=[];fontSize=16;fontColor=#143642;labelBackgroundColor=none;" vertex="1" connectable="0" parent="L6uiKgAgkNkLQAsuU1uR-33">
          <mxGeometry x="-0.0466" y="-1" relative="1" as="geometry">
            <mxPoint x="5.17" y="-9" as="offset" />
          </mxGeometry>
        </mxCell>
        <mxCell id="L6uiKgAgkNkLQAsuU1uR-25" value="&lt;b&gt;&lt;font style=&quot;font-size: 19px&quot;&gt;TEST&lt;/font&gt;&lt;/b&gt;" style="rounded=0;whiteSpace=wrap;html=1;dashed=1;labelBackgroundColor=none;sketch=1;strokeColor=#0F8B8D;fillColor=#FAE5C7;fontSize=16;fontColor=#143642;" vertex="1" parent="1">
          <mxGeometry x="537.5" y="334" width="135" height="43" as="geometry" />
        </mxCell>
        <mxCell id="L6uiKgAgkNkLQAsuU1uR-29" style="edgeStyle=orthogonalEdgeStyle;curved=1;rounded=1;sketch=0;orthogonalLoop=1;jettySize=auto;html=1;exitX=0.5;exitY=1;exitDx=0;exitDy=0;entryX=0.5;entryY=0;entryDx=0;entryDy=0;strokeColor=#A8201A;fillColor=#FAE5C7;fontSize=16;fontColor=#143642;strokeWidth=3;" edge="1" parent="1" source="L6uiKgAgkNkLQAsuU1uR-26" target="L6uiKgAgkNkLQAsuU1uR-27">
          <mxGeometry relative="1" as="geometry" />
        </mxCell>
        <mxCell id="L6uiKgAgkNkLQAsuU1uR-34" style="edgeStyle=orthogonalEdgeStyle;curved=1;rounded=1;sketch=0;orthogonalLoop=1;jettySize=auto;html=1;exitX=0;exitY=0.5;exitDx=0;exitDy=0;entryX=1;entryY=0.5;entryDx=0;entryDy=0;strokeColor=#A8201A;fillColor=#FAE5C7;fontSize=16;fontColor=#143642;strokeWidth=3;" edge="1" parent="1" source="L6uiKgAgkNkLQAsuU1uR-26" target="L6uiKgAgkNkLQAsuU1uR-4">
          <mxGeometry relative="1" as="geometry">
            <Array as="points">
              <mxPoint x="230" y="436" />
            </Array>
          </mxGeometry>
        </mxCell>
        <mxCell id="L6uiKgAgkNkLQAsuU1uR-37" value="&lt;span style=&quot;font-weight: 700;&quot;&gt;RESULT&lt;/span&gt;" style="edgeLabel;html=1;align=center;verticalAlign=middle;resizable=0;points=[];fontSize=16;fontColor=#143642;labelBackgroundColor=none;" vertex="1" connectable="0" parent="L6uiKgAgkNkLQAsuU1uR-34">
          <mxGeometry x="-0.342" y="-10" relative="1" as="geometry">
            <mxPoint x="2.67" y="-8.5" as="offset" />
          </mxGeometry>
        </mxCell>
        <mxCell id="L6uiKgAgkNkLQAsuU1uR-26" value="&lt;b&gt;&lt;font style=&quot;font-size: 19px&quot;&gt;STAGING&lt;/font&gt;&lt;/b&gt;" style="rounded=0;whiteSpace=wrap;html=1;dashed=1;labelBackgroundColor=none;sketch=1;strokeColor=#0F8B8D;fillColor=#FAE5C7;fontSize=16;fontColor=#143642;" vertex="1" parent="1">
          <mxGeometry x="537.5" y="414" width="135" height="43" as="geometry" />
        </mxCell>
        <mxCell id="L6uiKgAgkNkLQAsuU1uR-35" style="edgeStyle=orthogonalEdgeStyle;curved=1;rounded=1;sketch=0;orthogonalLoop=1;jettySize=auto;html=1;exitX=0;exitY=0.5;exitDx=0;exitDy=0;entryX=1;entryY=0.5;entryDx=0;entryDy=0;strokeColor=#A8201A;fillColor=#FAE5C7;fontSize=16;fontColor=#143642;strokeWidth=3;" edge="1" parent="1" source="L6uiKgAgkNkLQAsuU1uR-27" target="L6uiKgAgkNkLQAsuU1uR-4">
          <mxGeometry relative="1" as="geometry">
            <Array as="points">
              <mxPoint x="230" y="516" />
            </Array>
          </mxGeometry>
        </mxCell>
        <mxCell id="L6uiKgAgkNkLQAsuU1uR-38" value="&lt;span style=&quot;font-weight: 700;&quot;&gt;RESULT&lt;/span&gt;" style="edgeLabel;html=1;align=center;verticalAlign=middle;resizable=0;points=[];fontSize=16;fontColor=#143642;labelBackgroundColor=none;" vertex="1" connectable="0" parent="L6uiKgAgkNkLQAsuU1uR-35">
          <mxGeometry x="-0.3936" y="-18" relative="1" as="geometry">
            <mxPoint x="-8" y="-12.5" as="offset" />
          </mxGeometry>
        </mxCell>
        <mxCell id="L6uiKgAgkNkLQAsuU1uR-27" value="&lt;span style=&quot;font-size: 19px&quot;&gt;&lt;b&gt;PRODUCTION&lt;/b&gt;&lt;/span&gt;" style="rounded=0;whiteSpace=wrap;html=1;dashed=1;labelBackgroundColor=none;sketch=1;strokeColor=#0F8B8D;fillColor=#FAE5C7;fontSize=16;fontColor=#143642;" vertex="1" parent="1">
          <mxGeometry x="537.5" y="494" width="135" height="43" as="geometry" />
        </mxCell>
        <mxCell id="L6uiKgAgkNkLQAsuU1uR-31" style="edgeStyle=orthogonalEdgeStyle;curved=1;rounded=1;sketch=0;orthogonalLoop=1;jettySize=auto;html=1;exitX=0.5;exitY=1;exitDx=0;exitDy=0;strokeColor=#A8201A;fillColor=#FAE5C7;fontSize=16;fontColor=#143642;strokeWidth=3;" edge="1" parent="1" source="L6uiKgAgkNkLQAsuU1uR-7" target="L6uiKgAgkNkLQAsuU1uR-25">
          <mxGeometry relative="1" as="geometry" />
        </mxCell>
        <mxCell id="L6uiKgAgkNkLQAsuU1uR-51" value="" style="shape=mxgraph.cisco.people.androgenous_person;html=1;pointerEvents=1;dashed=0;fillColor=#FAE5C7;strokeColor=#0F8B8D;strokeWidth=2;verticalLabelPosition=bottom;verticalAlign=top;align=center;outlineConnect=0;fontColor=#143642;" vertex="1" parent="1">
          <mxGeometry x="170" y="310" width="60" height="60" as="geometry" />
        </mxCell>
        <mxCell id="L6uiKgAgkNkLQAsuU1uR-52" value="" style="group" vertex="1" connectable="0" parent="1">
          <mxGeometry x="66" y="806" width="109" height="187" as="geometry" />
        </mxCell>
        <mxCell id="L6uiKgAgkNkLQAsuU1uR-49" value="" style="shape=ext;double=1;rounded=1;whiteSpace=wrap;html=1;glass=0;sketch=1;perimeterSpacing=0;opacity=50;strokeColor=#0F8B8D;fillColor=#FAE5C7;fontColor=#143642;" vertex="1" parent="L6uiKgAgkNkLQAsuU1uR-52">
          <mxGeometry width="109" height="187" as="geometry" />
        </mxCell>
        <mxCell id="L6uiKgAgkNkLQAsuU1uR-48" value="" style="shape=mxgraph.cisco.people.androgenous_person;html=1;pointerEvents=1;dashed=0;fillColor=#FAE5C7;strokeColor=#0F8B8D;strokeWidth=2;verticalLabelPosition=bottom;verticalAlign=top;align=center;outlineConnect=0;fontColor=#143642;" vertex="1" parent="L6uiKgAgkNkLQAsuU1uR-52">
          <mxGeometry x="27" y="17" width="60" height="60" as="geometry" />
        </mxCell>
        <mxCell id="L6uiKgAgkNkLQAsuU1uR-50" value="" style="shape=mxgraph.cisco.people.androgenous_person;html=1;pointerEvents=1;dashed=0;fillColor=#FAE5C7;strokeColor=#0F8B8D;strokeWidth=2;verticalLabelPosition=bottom;verticalAlign=top;align=center;outlineConnect=0;fontColor=#143642;" vertex="1" parent="L6uiKgAgkNkLQAsuU1uR-52">
          <mxGeometry x="24.5" y="104" width="60" height="60" as="geometry" />
        </mxCell>
        <mxCell id="L6uiKgAgkNkLQAsuU1uR-57" value="&lt;font style=&quot;font-size: 22px&quot;&gt;&lt;b&gt;服务器 A&lt;/b&gt;&lt;/font&gt;" style="text;html=1;align=center;verticalAlign=middle;resizable=0;points=[];autosize=1;fontSize=16;fontColor=#CC0066;" vertex="1" parent="1">
          <mxGeometry x="312.5" y="777" width="98" height="25" as="geometry" />
        </mxCell>
        <mxCell id="L6uiKgAgkNkLQAsuU1uR-58" value="" style="group" vertex="1" connectable="0" parent="1">
          <mxGeometry x="277" y="819.75" width="197" height="159.5" as="geometry" />
        </mxCell>
        <mxCell id="L6uiKgAgkNkLQAsuU1uR-55" value="" style="rounded=1;whiteSpace=wrap;html=1;dashed=1;labelBackgroundColor=none;sketch=1;strokeColor=#0F8B8D;fillColor=#FAE5C7;fontSize=16;fontColor=#143642;" vertex="1" parent="L6uiKgAgkNkLQAsuU1uR-58">
          <mxGeometry width="197" height="159.5" as="geometry" />
        </mxCell>
        <mxCell id="L6uiKgAgkNkLQAsuU1uR-53" value="" style="aspect=fixed;perimeter=ellipsePerimeter;html=1;align=center;shadow=0;dashed=0;fontColor=#143642;fontSize=12;spacingTop=3;image;image=img/lib/ibm/data/device_registry.svg;labelBackgroundColor=#DAD2D8;fillColor=#FAE5C7;strokeColor=#0F8B8D;" vertex="1" parent="L6uiKgAgkNkLQAsuU1uR-58">
          <mxGeometry x="49.75" y="46.5" width="97.5" height="97.5" as="geometry" />
        </mxCell>
        <mxCell id="L6uiKgAgkNkLQAsuU1uR-56" value="&lt;font style=&quot;font-size: 22px&quot;&gt;&lt;b&gt;Git 仓库&lt;/b&gt;&lt;/font&gt;" style="text;html=1;align=center;verticalAlign=middle;resizable=0;points=[];autosize=1;fontSize=16;fontColor=#143642;" vertex="1" parent="L6uiKgAgkNkLQAsuU1uR-58">
          <mxGeometry x="53" y="18" width="91" height="25" as="geometry" />
        </mxCell>
        <mxCell id="L6uiKgAgkNkLQAsuU1uR-60" style="rounded=1;sketch=0;orthogonalLoop=1;jettySize=auto;html=1;exitX=1;exitY=0.5;exitDx=0;exitDy=0;exitPerimeter=0;strokeColor=#A8201A;strokeWidth=3;fillColor=#FAE5C7;fontSize=16;fontColor=#CC0066;edgeStyle=orthogonalEdgeStyle;" edge="1" parent="1" source="L6uiKgAgkNkLQAsuU1uR-48" target="L6uiKgAgkNkLQAsuU1uR-55">
          <mxGeometry relative="1" as="geometry" />
        </mxCell>
        <mxCell id="L6uiKgAgkNkLQAsuU1uR-61" style="rounded=1;sketch=0;orthogonalLoop=1;jettySize=auto;html=1;exitX=1;exitY=0.5;exitDx=0;exitDy=0;exitPerimeter=0;entryX=0;entryY=0.5;entryDx=0;entryDy=0;strokeColor=#A8201A;strokeWidth=3;fillColor=#FAE5C7;fontSize=16;fontColor=#CC0066;edgeStyle=orthogonalEdgeStyle;" edge="1" parent="1" source="L6uiKgAgkNkLQAsuU1uR-50" target="L6uiKgAgkNkLQAsuU1uR-55">
          <mxGeometry relative="1" as="geometry" />
        </mxCell>
        <mxCell id="L6uiKgAgkNkLQAsuU1uR-86" value="&lt;b&gt;&lt;font style=&quot;font-size: 19px&quot;&gt;push&lt;/font&gt;&lt;/b&gt;" style="edgeLabel;html=1;align=center;verticalAlign=middle;resizable=0;points=[];fontSize=15;labelBackgroundColor=none;" vertex="1" connectable="0" parent="L6uiKgAgkNkLQAsuU1uR-61">
          <mxGeometry x="0.4156" y="2" relative="1" as="geometry">
            <mxPoint x="14.67" y="-14.5" as="offset" />
          </mxGeometry>
        </mxCell>
        <mxCell id="L6uiKgAgkNkLQAsuU1uR-85" value="" style="group" vertex="1" connectable="0" parent="1">
          <mxGeometry x="567" y="751" width="260" height="264" as="geometry" />
        </mxCell>
        <mxCell id="L6uiKgAgkNkLQAsuU1uR-62" value="&lt;font style=&quot;font-size: 22px&quot;&gt;&lt;b&gt;服务器 B&lt;/b&gt;&lt;/font&gt;" style="text;html=1;align=center;verticalAlign=middle;resizable=0;points=[];autosize=1;fontSize=16;fontColor=#CC0066;" vertex="1" parent="L6uiKgAgkNkLQAsuU1uR-85">
          <mxGeometry x="81" width="98" height="25" as="geometry" />
        </mxCell>
        <mxCell id="L6uiKgAgkNkLQAsuU1uR-63" value="" style="group;labelBorderColor=none;labelBackgroundColor=none;sketch=1;" vertex="1" connectable="0" parent="L6uiKgAgkNkLQAsuU1uR-85">
          <mxGeometry y="34" width="260" height="230" as="geometry" />
        </mxCell>
        <mxCell id="L6uiKgAgkNkLQAsuU1uR-64" value="" style="rounded=1;whiteSpace=wrap;html=1;dashed=1;labelBackgroundColor=none;sketch=1;strokeColor=#0F8B8D;fillColor=#FAE5C7;fontSize=16;fontColor=#143642;" vertex="1" parent="L6uiKgAgkNkLQAsuU1uR-63">
          <mxGeometry width="260" height="230" as="geometry" />
        </mxCell>
        <mxCell id="L6uiKgAgkNkLQAsuU1uR-66" value="&lt;font style=&quot;font-size: 22px&quot;&gt;&lt;b&gt;Jenkins&lt;/b&gt;&lt;/font&gt;" style="text;html=1;align=center;verticalAlign=middle;resizable=0;points=[];autosize=1;fontSize=16;fontColor=#143642;" vertex="1" parent="L6uiKgAgkNkLQAsuU1uR-63">
          <mxGeometry x="83.99923857868019" y="15.996112852664574" width="92" height="25" as="geometry" />
        </mxCell>
        <mxCell id="L6uiKgAgkNkLQAsuU1uR-68" value="" style="aspect=fixed;perimeter=ellipsePerimeter;html=1;align=center;shadow=0;dashed=0;spacingTop=3;image;image=img/lib/active_directory/database_partition_5.svg;rounded=0;labelBackgroundColor=none;sketch=1;strokeColor=#0F8B8D;fillColor=#FAE5C7;fontSize=16;fontColor=#CC0066;" vertex="1" parent="L6uiKgAgkNkLQAsuU1uR-63">
          <mxGeometry x="87.43" y="48" width="85.13" height="62.99" as="geometry" />
        </mxCell>
        <mxCell id="L6uiKgAgkNkLQAsuU1uR-74" value="" style="group" vertex="1" connectable="0" parent="L6uiKgAgkNkLQAsuU1uR-63">
          <mxGeometry x="16.96" y="117.99" width="57.00000000000001" height="70.00000000000001" as="geometry" />
        </mxCell>
        <mxCell id="L6uiKgAgkNkLQAsuU1uR-72" value="" style="shape=image;html=1;verticalLabelPosition=bottom;verticalAlign=top;imageAspect=1;aspect=fixed;image=img/clipart/Gear_128x128.png;rounded=0;dashed=1;labelBackgroundColor=none;sketch=1;strokeColor=#0F8B8D;fillColor=#FAE5C7;fontSize=16;fontColor=#000000;" vertex="1" parent="L6uiKgAgkNkLQAsuU1uR-74">
          <mxGeometry x="8.04" width="40.92" height="48" as="geometry" />
        </mxCell>
        <mxCell id="L6uiKgAgkNkLQAsuU1uR-73" value="&lt;span style=&quot;font-size: 15px;&quot;&gt;&lt;span style=&quot;font-size: 15px;&quot;&gt;Maven&lt;/span&gt;&lt;/span&gt;" style="text;html=1;align=center;verticalAlign=middle;resizable=0;points=[];autosize=1;fontSize=15;fontColor=#41665C;fontStyle=1" vertex="1" parent="L6uiKgAgkNkLQAsuU1uR-74">
          <mxGeometry y="48.000000000000014" width="57" height="22" as="geometry" />
        </mxCell>
        <mxCell id="L6uiKgAgkNkLQAsuU1uR-77" value="" style="group" vertex="1" connectable="0" parent="L6uiKgAgkNkLQAsuU1uR-63">
          <mxGeometry x="101.5" y="117.99000000000001" width="57.00000000000001" height="70.00000000000001" as="geometry" />
        </mxCell>
        <mxCell id="L6uiKgAgkNkLQAsuU1uR-78" value="" style="shape=image;html=1;verticalLabelPosition=bottom;verticalAlign=top;imageAspect=1;aspect=fixed;image=img/clipart/Gear_128x128.png;rounded=0;dashed=1;labelBackgroundColor=none;sketch=1;strokeColor=#0F8B8D;fillColor=#FAE5C7;fontSize=16;fontColor=#000000;" vertex="1" parent="L6uiKgAgkNkLQAsuU1uR-77">
          <mxGeometry x="8.04" width="40.92" height="48" as="geometry" />
        </mxCell>
        <mxCell id="L6uiKgAgkNkLQAsuU1uR-79" value="JDK" style="text;html=1;align=center;verticalAlign=middle;resizable=0;points=[];autosize=1;fontSize=15;fontColor=#41665C;fontStyle=1" vertex="1" parent="L6uiKgAgkNkLQAsuU1uR-77">
          <mxGeometry x="9" y="48.000000000000014" width="40" height="22" as="geometry" />
        </mxCell>
        <mxCell id="L6uiKgAgkNkLQAsuU1uR-80" value="" style="group" vertex="1" connectable="0" parent="L6uiKgAgkNkLQAsuU1uR-63">
          <mxGeometry x="185" y="117.99000000000001" width="57.00000000000001" height="70.00000000000001" as="geometry" />
        </mxCell>
        <mxCell id="L6uiKgAgkNkLQAsuU1uR-81" value="" style="shape=image;html=1;verticalLabelPosition=bottom;verticalAlign=top;imageAspect=1;aspect=fixed;image=img/clipart/Gear_128x128.png;rounded=0;dashed=1;labelBackgroundColor=none;sketch=1;strokeColor=#0F8B8D;fillColor=#FAE5C7;fontSize=16;fontColor=#000000;" vertex="1" parent="L6uiKgAgkNkLQAsuU1uR-80">
          <mxGeometry x="8.04" width="40.92" height="48" as="geometry" />
        </mxCell>
        <mxCell id="L6uiKgAgkNkLQAsuU1uR-82" value="&lt;span style=&quot;font-size: 15px&quot;&gt;&lt;span style=&quot;font-size: 15px&quot;&gt;Git&lt;/span&gt;&lt;/span&gt;" style="text;html=1;align=center;verticalAlign=middle;resizable=0;points=[];autosize=1;fontSize=15;fontColor=#41665C;fontStyle=1" vertex="1" parent="L6uiKgAgkNkLQAsuU1uR-80">
          <mxGeometry x="13" y="48.000000000000014" width="31" height="22" as="geometry" />
        </mxCell>
        <mxCell id="L6uiKgAgkNkLQAsuU1uR-83" value="&lt;font style=&quot;font-size: 18px&quot;&gt;&lt;b&gt;编译、代码审查、打包&lt;/b&gt;&lt;/font&gt;" style="text;html=1;align=center;verticalAlign=middle;resizable=0;points=[];autosize=1;fontSize=15;fontColor=#A680B8;" vertex="1" parent="L6uiKgAgkNkLQAsuU1uR-63">
          <mxGeometry x="40" y="200" width="190" height="23" as="geometry" />
        </mxCell>
        <mxCell id="L6uiKgAgkNkLQAsuU1uR-87" style="edgeStyle=orthogonalEdgeStyle;rounded=1;sketch=0;orthogonalLoop=1;jettySize=auto;html=1;exitX=1;exitY=0.5;exitDx=0;exitDy=0;entryX=0;entryY=0.5;entryDx=0;entryDy=0;strokeColor=#A8201A;strokeWidth=3;fillColor=#FAE5C7;fontSize=15;fontColor=#000000;" edge="1" parent="1" source="L6uiKgAgkNkLQAsuU1uR-55" target="L6uiKgAgkNkLQAsuU1uR-64">
          <mxGeometry relative="1" as="geometry" />
        </mxCell>
        <mxCell id="L6uiKgAgkNkLQAsuU1uR-89" value="&lt;b&gt;&lt;font style=&quot;font-size: 19px&quot;&gt;pull&lt;/font&gt;&lt;/b&gt;" style="edgeLabel;html=1;align=center;verticalAlign=middle;resizable=0;points=[];fontSize=15;labelBackgroundColor=none;" vertex="1" connectable="0" parent="1">
          <mxGeometry x="516.0033333333333" y="880.0000000000002" as="geometry" />
        </mxCell>
        <mxCell id="L6uiKgAgkNkLQAsuU1uR-90" value="&lt;font style=&quot;font-size: 22px&quot;&gt;&lt;b&gt;服务器 C&lt;/b&gt;&lt;/font&gt;" style="text;html=1;align=center;verticalAlign=middle;resizable=0;points=[];autosize=1;fontSize=16;fontColor=#CC0066;" vertex="1" parent="1">
          <mxGeometry x="941.5" y="770" width="98" height="25" as="geometry" />
        </mxCell>
        <mxCell id="L6uiKgAgkNkLQAsuU1uR-91" value="" style="group" vertex="1" connectable="0" parent="1">
          <mxGeometry x="892" y="812" width="197" height="159.5" as="geometry" />
        </mxCell>
        <mxCell id="L6uiKgAgkNkLQAsuU1uR-92" value="" style="rounded=1;whiteSpace=wrap;html=1;dashed=1;labelBackgroundColor=none;sketch=1;strokeColor=#0F8B8D;fillColor=#FAE5C7;fontSize=16;fontColor=#143642;" vertex="1" parent="L6uiKgAgkNkLQAsuU1uR-91">
          <mxGeometry width="197" height="159.5" as="geometry" />
        </mxCell>
        <mxCell id="L6uiKgAgkNkLQAsuU1uR-94" value="&lt;font style=&quot;font-size: 22px&quot;&gt;&lt;b&gt;测试 / 生产环境&lt;/b&gt;&lt;/font&gt;" style="text;html=1;align=center;verticalAlign=middle;resizable=0;points=[];autosize=1;fontSize=16;fontColor=#143642;" vertex="1" parent="L6uiKgAgkNkLQAsuU1uR-91">
          <mxGeometry x="19" y="18" width="160" height="25" as="geometry" />
        </mxCell>
        <mxCell id="L6uiKgAgkNkLQAsuU1uR-96" value="" style="image;html=1;image=img/lib/clip_art/computers/Server_Rack_Partial_128x128.png;rounded=0;dashed=1;labelBackgroundColor=none;sketch=1;strokeColor=#0F8B8D;fillColor=#FAE5C7;fontSize=15;fontColor=#000000;" vertex="1" parent="L6uiKgAgkNkLQAsuU1uR-91">
          <mxGeometry x="58.5" y="65.25" width="80" height="80" as="geometry" />
        </mxCell>
        <mxCell id="L6uiKgAgkNkLQAsuU1uR-97" style="edgeStyle=orthogonalEdgeStyle;rounded=1;sketch=0;orthogonalLoop=1;jettySize=auto;html=1;exitX=1;exitY=0.5;exitDx=0;exitDy=0;entryX=-0.015;entryY=0.553;entryDx=0;entryDy=0;entryPerimeter=0;strokeColor=#A8201A;strokeWidth=3;fillColor=#FAE5C7;fontSize=15;fontColor=#000000;" edge="1" parent="1" source="L6uiKgAgkNkLQAsuU1uR-64" target="L6uiKgAgkNkLQAsuU1uR-92">
          <mxGeometry relative="1" as="geometry" />
        </mxCell>
        <mxCell id="L6uiKgAgkNkLQAsuU1uR-98" value="&lt;b&gt;&lt;font style=&quot;font-size: 19px&quot;&gt;部署&lt;/font&gt;&lt;/b&gt;" style="edgeLabel;html=1;align=center;verticalAlign=middle;resizable=0;points=[];fontSize=15;labelBackgroundColor=none;" vertex="1" connectable="0" parent="1">
          <mxGeometry x="621.0033333333333" y="891.7500000000002" as="geometry">
            <mxPoint x="231" y="-10" as="offset" />
          </mxGeometry>
        </mxCell>
        <mxCell id="L6uiKgAgkNkLQAsuU1uR-101" style="edgeStyle=orthogonalEdgeStyle;rounded=1;sketch=0;orthogonalLoop=1;jettySize=auto;html=1;exitX=0;exitY=0.5;exitDx=0;exitDy=0;entryX=1;entryY=0.5;entryDx=0;entryDy=0;strokeColor=#A8201A;strokeWidth=3;fillColor=#FAE5C7;fontSize=15;fontColor=#000000;" edge="1" parent="1" source="L6uiKgAgkNkLQAsuU1uR-100" target="L6uiKgAgkNkLQAsuU1uR-92">
          <mxGeometry relative="1" as="geometry" />
        </mxCell>
        <mxCell id="L6uiKgAgkNkLQAsuU1uR-100" value="" style="shape=image;html=1;verticalAlign=top;verticalLabelPosition=bottom;labelBackgroundColor=#ffffff;imageAspect=0;aspect=fixed;image=https://cdn0.iconfinder.com/data/icons/education-340/100/Tilda_Icons_1ed_group-128.png;rounded=0;dashed=1;sketch=1;strokeColor=#0F8B8D;fillColor=#FAE5C7;fontSize=15;fontColor=#000000;" vertex="1" parent="1">
          <mxGeometry x="1162" y="827.75" width="128" height="128" as="geometry" />
        </mxCell>
        <mxCell id="L6uiKgAgkNkLQAsuU1uR-102" value="&lt;span style=&quot;font-size: 19px&quot;&gt;&lt;b&gt;访问&lt;/b&gt;&lt;/span&gt;" style="edgeLabel;html=1;align=center;verticalAlign=middle;resizable=0;points=[];fontSize=15;labelBackgroundColor=none;" vertex="1" connectable="0" parent="1">
          <mxGeometry x="529.0033333333333" y="897.0000000000002" as="geometry">
            <mxPoint x="600" y="-29" as="offset" />
          </mxGeometry>
        </mxCell>
      </root>
    </mxGraphModel>
  </diagram>
</mxfile>
